HIERARCHY
ROOT Hips
{
  OFFSET 176.189 89.6231 506.032
  CHANNELS 6 Xposition Yposition Zposition Zrotation Xrotation Yrotation
  JOINT RightUpLeg
  {
    OFFSET -8.9458 -8.66707 0.101652
    CHANNELS 3 Zrotation Xrotation Yrotation
    JOINT RightLeg
    {
      OFFSET 0 -44.4227 1.3727
      CHANNELS 3 Zrotation Xrotation Yrotation
      JOINT RightFoot
      {
        OFFSET 0.253549 -42.0924 -1.46059
        CHANNELS 3 Zrotation Xrotation Yrotation
        JOINT RightToes
        {
          OFFSET 0.04 -4.41509 8.4991
          CHANNELS 3 Zrotation Xrotation Yrotation
          End Site
          {
            OFFSET -0.08 -0.137448 9.77979
          }
        }
      }
    }
  }
  JOINT Spine
  {
    OFFSET 0 11.8905 0
    CHANNELS 3 Zrotation Xrotation Yrotation
    JOINT Spine1
    {
      OFFSET 0 25.6574 0.127663
      CHANNELS 3 Zrotation Xrotation Yrotation
      JOINT HEad
      {
        OFFSET 0 8.73416 0.011341
        CHANNELS 3 Zrotation Xrotation Yrotation
        End Site
        {
          OFFSET -0.29 12.7742 2.51395
        }
      }
      JOINT LeftShoulder1
      {
        OFFSET 8.99 -0.362252 -0.22
        CHANNELS 3 Zrotation Xrotation Yrotation
        JOINT LeftArm
        {
          OFFSET 10.2827 -0.00338 0.322123
          CHANNELS 3 Zrotation Xrotation Yrotation
          JOINT LeftForeArm
          {
            OFFSET 32.7669 0.099144 -1.42434
            CHANNELS 3 Zrotation Xrotation Yrotation
            JOINT LeftHand
            {
              OFFSET 27.5643 0.085362 1.02216
              CHANNELS 3 Zrotation Xrotation Yrotation
              End Site
              {
                OFFSET 16.7443 -0.6 1.50291
              }
            }
          }
        }
      }
      JOINT RightShoulder
      {
        OFFSET -8.99 -0.362252 -0.22
        CHANNELS 3 Zrotation Xrotation Yrotation
        JOINT RightArm
        {
          OFFSET -10.2827 -0.00338 0.322123
          CHANNELS 3 Zrotation Xrotation Yrotation
          JOINT RightForeArm
          {
            OFFSET -32.8971 0.099144 -1.42434
            CHANNELS 3 Zrotation Xrotation Yrotation
            JOINT RightHand
            {
              OFFSET -27.4921 0.085362 1.02216
              CHANNELS 3 Zrotation Xrotation Yrotation
              End Site
              {
                OFFSET -16.6312 -0.6 1.50291
              }
            }
          }
        }
      }
    }
  }
  JOINT LeftUpLeg
  {
    OFFSET 8.9458 -8.66707 0.101652
    CHANNELS 3 Zrotation Xrotation Yrotation
    JOINT LeftLeg
    {
      OFFSET 0 -44.4227 1.3727
      CHANNELS 3 Zrotation Xrotation Yrotation
      JOINT LeftFoot
      {
        OFFSET -0.253549 -42.0924 -1.46059
        CHANNELS 3 Zrotation Xrotation Yrotation
        JOINT LeftToes
        {
          OFFSET -0.04 -4.41509 8.4991
          CHANNELS 3 Zrotation Xrotation Yrotation
          End Site
          {
            OFFSET 0.08 -0.047448 9.77979
          }
        }
      }
    }
  }
}
MOTION
Frames:	14
Frame Time:	0.0166667
185.558 94.6021 502.786 -3.0165 -0.672828 6.23448 -20.5507 -4.35216 3.34063 -2.08692 26.3227 -0.520346 25.5364 -1.20754 0.823959 0.0462048 0.000533403 0.662642 -13.8396 12.9791 -10.175 0.00289455 -6.19829e-005 0.02078 -1.67081 7.87559 49.0911 5.96354e-016 -1.59028e-015 -0 25.3899 -50.6667 -20.8225 -16.2832 13.4612 -20.3984 -4.27262 -3.45044 -5.06582 30.9808 4.237 16.2259 45.0162 -22.3603 63.1715 45.4658 57.906 85.6207 -6.9533 17.962 1.95202 18.7962 -25.7322 3.1636 2.51348 31.02 6.94861 18.259 -2.53911 0.992964 -1.18446e-009 1.5602e-007 -4.87132e-009 
186.761 95.2218 502.94 -3.35123 -0.144569 5.33798 -20.4018 -4.08754 2.91211 -1.88698 25.0972 -1.2888 25.4325 -1.42108 0.878852 0.0462048 0.000533403 0.662642 -13.6135 12.1809 -9.70546 0.000296637 0.000372897 0.0202101 -2.40702 7.6394 48.8752 2.48481e-015 -1.59028e-015 -0 32.239 -60.2108 -7.1752 -25.0338 24.1245 -27.4641 -0.105557 12.5321 -3.83868 30.5626 4.82178 16.5352 45.1553 -22.6204 62.2392 45.2306 58.0679 86.3473 -7.34298 17.5885 2.93031 18.5529 -25.146 3.20736 2.12194 29.9919 7.65603 19.7163 -2.46448 1.04863 -1.18446e-009 1.5602e-007 -4.87132e-009 
187.985 95.8052 503.154 -3.65742 0.377261 4.47467 -20.2462 -3.82462 2.50218 -1.65946 23.9135 -2.09487 25.4014 -1.63277 0.93629 0.0462048 0.000533403 0.662642 -13.3366 11.3992 -9.1954 -0.00210447 0.000621115 0.00968029 -3.1498 7.45156 48.577 -1.39149e-015 0 7.95139e-016 47.4987 -68.4237 14.3085 -36.3039 34.8199 -30.1927 2.78712 18.9126 -3.28894 30.0903 5.39137 16.8327 45.3367 -22.9254 61.2958 45.0282 58.2623 87.0688 -7.54505 17.4658 3.54894 18.2821 -24.5665 3.25061 1.66468 28.9603 8.35729 21.1982 -2.37835 1.10219 -1.18446e-009 1.5602e-007 -4.87131e-009 
189.221 96.3531 503.413 -3.95273 0.895301 3.65685 -20.0863 -3.56871 2.10115 -1.39256 22.7733 -2.94716 25.4011 -1.84478 0.995223 0.0462048 0.000533403 0.662642 -13.022 10.6403 -8.64599 -0.00363965 0.000809088 0.00928017 -3.87132 7.32013 48.1723 -1.88845e-015 -1.59028e-015 1.59028e-015 76.7187 -72.9346 49.3195 -51.697 43.92 -26.6134 4.88734 21.0182 -2.81787 29.5365 5.92179 17.1093 45.6179 -23.2987 60.3923 44.9206 58.4645 87.7406 -7.61121 17.4948 3.98354 18.0009 -24.0003 3.29231 1.19795 27.9278 9.02245 22.6739 -2.28167 1.15128 -1.18446e-009 1.5602e-007 -4.87131e-009 
190.472 96.869 503.701 -4.25562 1.4092 2.89408 -19.9226 -3.32022 1.70329 -1.07519 21.678 -3.84609 25.3968 -2.05907 1.05482 0.0462048 0.000533403 0.662642 -12.6764 9.90853 -8.05671 -0.00321965 0.000449091 0.00931012 -4.54842 7.25189 47.6686 -2.18663e-015 -1.59028e-015 -1.59028e-015 110.148 -71.1336 88.3136 -71.8357 49.2325 -16.0547 6.02831 21.2525 -2.55287 28.9344 6.41664 17.3519 45.9989 -23.7336 59.5566 44.9164 58.6851 88.3629 -7.56544 17.6255 4.31425 17.7178 -23.4544 3.32784 0.751816 26.899 9.63781 24.1324 -2.17477 1.19446 -1.18447e-009 1.5602e-007 -4.87131e-009 
191.691 97.2172 503.993 -4.539 1.81392 2.187 -19.8569 -3.09197 1.34064 -0.198231 20.4137 -4.91872 24.8141 -2.36606 1.11171 0.0462048 0.000533403 0.662642 -11.8872 9.40352 -7.25764 0.0230508 0.0197879 0.0207514 -5.3463 7.13646 46.3437 -4.67144e-015 0 -7.95139e-016 132.665 -65.8527 116.485 -92.0485 48.841 -1.98907 8.04809 21.247 -4.95007 27.9891 6.73036 16.7991 48.121 -23.9705 59.626 45.4112 58.5409 88.268 -12.4647 19.0279 8.60245 17.4702 -22.7662 2.92345 -0.406182 25.6557 11.4662 26.0008 -2.01194 1.24844 -1.18446e-009 1.5602e-007 -4.87132e-009 
192.935 97.6148 504.266 -4.80402 2.09283 1.54661 -19.4039 -3.38218 0.952944 1.79237 19.9121 -6.14081 17.3935 -3.29582 0.997411 0.0462048 0.000533403 0.662642 -10.7279 9.14314 -6.22347 0.0231509 0.0205579 0.0215615 -6.15198 7.03771 44.2342 3.37934e-015 0 -0 146.169 -59.4336 135.871 -106.825 43.9827 9.39525 9.75505 21.0837 -8.89403 26.7982 6.8872 15.5778 51.7804 -23.9888 60.3932 46.3027 58.1106 87.5551 -19.2898 20.1779 15.0418 17.2777 -21.7733 2.08176 -2.0366 23.839 14.3186 28.1974 -1.62797 1.2617 -1.18446e-009 1.5602e-007 -4.87131e-009 
194.18 97.9556 504.487 -4.79128 1.7007 1.1496 -18.9268 -3.22092 0.546647 4.86522 19.4203 -7.55112 5.54834 -4.22816 0.430853 0.0462048 0.000533403 0.662642 -9.50906 9.70435 -5.0332 0.0208209 0.0205178 0.0217015 -6.91421 6.9511 41.3477 -3.27995e-015 0 2.38542e-015 154.477 -53.166 150.516 -113.493 37.7343 15.7552 8.61975 20.2456 -13.8749 25.382 6.8547 13.8238 56.7721 -23.7316 61.6465 47.4523 57.3834 86.3628 -20.225 21.0182 17.8306 16.751 -20.2415 0.783152 -3.73449 21.8223 17.7266 30.5868 -1.15514 1.25816 -1.18447e-009 1.5602e-007 -4.87132e-009 
195.314 98.0504 504.576 -3.76772 -0.67913 1.66464 -18.6242 -1.59067 0.82462 10.896 18.8487 -10.161 -15.8492 -4.04612 -1.01067 0.0462048 0.000533403 0.662642 -8.05377 12.8034 -3.64721 0.0653226 0.0693138 0.0620552 -7.60698 6.69101 35.9453 6.4605e-016 0 -0 161.276 -51.7135 165.943 -112.029 37.4511 14.9287 8.41998 31.3103 -9.6433 23.0977 5.9886 11.0096 65.5282 -22.7239 63.918 48.8306 55.7656 83.8336 -8.13756 22.3582 12.2824 15.1576 -17.5144 -1.94533 -6.24747 20.1595 23.4469 33.533 -0.874105 1.36091 -1.18446e-009 1.5602e-007 -4.87132e-009 
196.394 98.0962 504.524 -2.80763 -2.94341 2.26118 -19.8811 -0.923467 2.25551 18.9542 18.2227 -14.24 -16.9938 -3.90274 -1.01118 0.0462048 0.000533403 0.662642 -6.48835 15.3852 -2.38491 -0.00654023 0.00596051 -0.00510926 -8.2087 6.90159 30.8198 -4.09993e-016 1.59028e-015 2.98177e-016 168.265 -54.258 -179.113 -109.644 44.5487 11.1061 11.2467 25.1006 -12.0861 20.9526 5.65911 8.10911 76.3718 -20.9986 66.1079 49.4892 53.8145 81.0786 -0.296285 23.3011 10.52 13.9645 -14.9384 -4.56976 -8.90383 17.9767 30.7423 36.7913 -0.318615 1.38624 -1.18447e-009 1.5602e-007 -4.87132e-009 
197.338 97.9388 504.367 -1.89146 -5.07845 2.93047 -20.1259 -0.175348 3.52621 26.9289 16.3642 -18.3313 -29.3441 -3.26768 -1.70762 0.0462048 0.000533403 0.662642 -4.88745 17.4699 -1.26659 -0.0118905 0.00631122 -0.0122291 -8.81631 7.39191 25.8851 -4.41391e-032 -3.18055e-015 -7.95139e-016 173.18 -56.1625 -168.358 -105.275 48.0478 4.62492 11.502 28.0417 -9.56111 18.9063 5.65404 5.15802 88.1738 -18.4223 67.6563 48.8455 51.8686 78.6572 14.046 23.282 4.10941 13.3305 -12.9444 -7.0458 -11.7327 16.1063 39.4115 40.0257 0.0686838 1.4124 -1.18447e-009 1.5602e-007 -4.87131e-009 
198.184 97.7151 504.165 -0.998963 -7.06238 3.66654 -20.856 0.196507 4.80021 32.9969 15.2457 -21.9197 -34.4179 -2.89257 -1.96068 0.0462048 0.000533403 0.662642 -3.31446 19.0746 -0.29513 -0.0118905 0.00631122 -0.0122291 -9.33944 8.16435 21.2859 9.93923e-017 1.59028e-015 3.97569e-016 176.627 -57.9756 -160.367 -100.355 49.2221 -2.77795 10.9159 24.774 -10.8518 16.9764 6.01188 2.29362 100.163 -15.0989 68.4079 47.42 54.1952 74.7036 19.6303 22.96 2.59161 13.0016 -11.1106 -9.44554 -14.0676 13.8721 48.9069 43.0939 0.620579 1.2821 -1.18446e-009 1.5602e-007 -4.87131e-009 
198.905 97.4647 503.954 -0.115899 -8.87365 4.46767 -22.1847 0.327084 6.11137 36.802 15.1459 -25.1477 -32.0368 -2.96751 -1.77446 0.0462048 0.000533403 0.662642 -1.95568 20.6107 0.373784 -0.0118905 0.00631122 -0.0122291 -9.65319 8.74814 17.2306 2.98177e-016 0 -0 179.193 -59.3595 -153.562 -98.0111 50.2387 -7.91695 9.33103 25.8559 -9.63401 15.4589 6.38587 -0.0279856 107.573 -13.1991 68.5063 46.7125 56.0747 72.3561 25.1136 22.0254 -0.00930697 12.7382 -9.34069 -11.7986 -15.5426 11.6061 56.8171 45.7639 1.36202 0.969045 -1.18446e-009 1.5602e-007 -4.87131e-009 
199.51 97.0223 503.802 0.767532 -10.4996 5.33971 -22.8075 0.252614 7.27106 37.2198 17.4349 -27.9735 -31.8494 -2.70738 -1.72055 0.0462048 0.000533403 0.662642 -0.812183 22.0431 0.77666 -0.0118905 0.00631122 -0.0122291 -9.80375 9.15995 13.7353 -7.95139e-016 -3.18055e-015 -0 -178.91 -60.4205 -147.709 -97.026 51.1988 -11.747 10.7289 23.868 -11.1681 14.2026 6.73898 -1.88658 112.001 -12.1375 68.4894 46.4573 57.3964 70.9236 26.507 21.6644 -0.0921454 12.7841 -8.05189 -14.0467 -17.2086 10.0666 63.6901 48.0582 1.65621 0.775164 -1.18447e-009 1.5602e-007 -4.87132e-009 
